<svg xmlns="http://www.w3.org/2000/svg" width="301.819" height="84" viewBox="0 0 301.819 84"><g transform="translate(-578.62 -441.228)"><path d="M-105.834-62.833l-13.823,46.8H-128.8l13.769-46.8Zm-17.2-1.306,3.429-7.891h24.544l-2.34,7.891ZM-96.854-47l-7.184,17.9h4.082ZM-117.644-16.03l17.361-39.565h11.7L-93.97-16.03h-8.163l1.252-7.129h-5.388l-2.83,7.129Zm33.741,0H-92.12l11.646-39.565h14.531a4.987,4.987,0,0,1,2.231.435,3.12,3.12,0,0,1,1.306,1.143,3.406,3.406,0,0,1,.49,1.605,5.707,5.707,0,0,1-.218,1.878l-5.442,18.558a5.041,5.041,0,0,1-2.2,3.048,9.886,9.886,0,0,1-3.537,1.306,17.463,17.463,0,0,1-3.891.218,30.817,30.817,0,0,1-3.265-.326Zm8.109-17.687a1.622,1.622,0,0,0,1.007-.272,2.454,2.454,0,0,0,.626-1.252l3.646-12.354a1.467,1.467,0,0,0-.054-1.2q-.272-.435-1.2-.435h-2.395l-4.571,15.51Zm40-22.857-9.034,2.068,3.048-10.286h-3.156a1.993,1.993,0,0,0-1.116.245,1.794,1.794,0,0,0-.571,1.007L-57.508-26.425q-.326,1.088.109,1.524a1.943,1.943,0,0,0,1.415.435h9.9L-50.65-16.03H-61.317a8.829,8.829,0,0,1-2.912-.463,5.345,5.345,0,0,1-2.231-1.442,4.9,4.9,0,0,1-1.17-2.531,8.23,8.23,0,0,1,.381-3.728L-54.46-67.84a5.527,5.527,0,0,1,2.2-3.347,7.318,7.318,0,0,1,3.728-.843h17.306Zm9.85,40.544h-8.163l4.9-16.707h-4.136L-38.3-16.03H-46.46l11.646-39.565h8.163l-4.626,15.837h4.136l4.68-15.837H-14.3ZM-3.249-47l-7.184,17.9h4.082ZM-24.038-16.03-6.678-55.595h11.7L-.365-16.03H-8.528l1.252-7.129h-5.388l-2.83,7.129ZM16.234-38.016,9.7-16.03H1.486L13.132-55.595H21.3L22.71-41.771l9.252-13.823h8.49L28.751-16.03H20.533l6.476-21.986L17.975-25.663ZM39.69-16.03H31.472L43.118-55.595H57.649a4.987,4.987,0,0,1,2.231.435,3.12,3.12,0,0,1,1.306,1.143,3.405,3.405,0,0,1,.49,1.605,5.706,5.706,0,0,1-.218,1.878L56.016-31.976a5.041,5.041,0,0,1-2.2,3.048,9.887,9.887,0,0,1-3.537,1.306,17.464,17.464,0,0,1-3.891.218,30.818,30.818,0,0,1-3.265-.326ZM47.8-33.717a1.622,1.622,0,0,0,1.007-.272,2.454,2.454,0,0,0,.626-1.252l3.646-12.354a1.467,1.467,0,0,0-.054-1.2q-.272-.435-1.2-.435H49.431L44.86-33.717ZM72.669-48.465a1.618,1.618,0,0,0-.844.245,1.571,1.571,0,0,0-.626.9l-2.34,8.054h4.408a5.548,5.548,0,0,1,1.959.327,3.121,3.121,0,0,1,1.388.98,3.2,3.2,0,0,1,.626,1.687,6.59,6.59,0,0,1-.327,2.5L72.4-18.425a2.778,2.778,0,0,1-1.5,1.8,5.254,5.254,0,0,1-2.422.6H55.037l2.231-7.51h6.857a2.378,2.378,0,0,0,1.469-.3,2.674,2.674,0,0,0,.6-1.061l1.9-6.694A.587.587,0,0,0,68.152-32q-.054-.136-.435-.136H63.363q-2.612,0-3.32-1.306a4.662,4.662,0,0,1-.109-3.483l4.517-15.347a4.291,4.291,0,0,1,2.041-2.694,6.518,6.518,0,0,1,2.8-.626h12.68l-2.122,7.129Z" transform="translate(798.464 527.258)" fill="#03237e"/><g transform="translate(578.62 441.228)"><g transform="translate(0 0)"><path d="M13.471,50.4H0L8.843,25.2S14.939,0,35.368,0H69.554L60.712,16.8H35.368c-6.014,0-8.842,8.4-8.842,8.4L17.684,50.4H33.578L9.509,84Z" transform="translate(11.489 0)" fill="orange"/><path d="M19.723,16.8H4.816L0,0H33.231C25.944,3.816,21.864,11.242,19.724,16.8Z" transform="translate(0 0)" fill="orange"/></g></g></g></svg>